<svg width="134" height="26" viewBox="0 0 134 26" fill="none" xmlns="http://www.w3.org/2000/svg">
<path d="M0 1.52344H4.8125V20.4141H16.2188V24.5547H0V1.52344Z" fill="#FF2626"/>
<path d="M21.7812 7.52344V24.5547H17.2656V7.52344H21.7812ZM21.7812 1.38281V5.49219H17.2656V1.38281H21.7812Z" fill="#FF2626"/>
<path d="M22.4375 7.52344H27.4375L30.9844 20.0859L34.6094 7.52344H39.3906L33.25 24.5547H28.5469L22.4375 7.52344Z" fill="#FF2626"/>
<path d="M54.5 19.5547C54.3854 20.5651 53.8594 21.5911 52.9219 22.6328C51.4635 24.2891 49.4219 25.1172 46.7969 25.1172C44.6302 25.1172 42.7188 24.4193 41.0625 23.0234C39.4062 21.6276 38.5781 19.3568 38.5781 16.2109C38.5781 13.263 39.3229 11.0026 40.8125 9.42969C42.3125 7.85677 44.2552 7.07031 46.6406 7.07031C48.0573 7.07031 49.3333 7.33594 50.4688 7.86719C51.6042 8.39844 52.5417 9.23698 53.2812 10.3828C53.9479 11.3932 54.3802 12.5651 54.5781 13.8984C54.6927 14.6797 54.7396 15.8047 54.7188 17.2734H43.0625C43.125 18.9818 43.6615 20.1797 44.6719 20.8672C45.2865 21.2943 46.026 21.5078 46.8906 21.5078C47.8073 21.5078 48.5521 21.2474 49.125 20.7266C49.4375 20.4453 49.7135 20.0547 49.9531 19.5547H54.5ZM50.0938 14.3359C50.0208 13.1589 49.6615 12.2682 49.0156 11.6641C48.3802 11.0495 47.5885 10.7422 46.6406 10.7422C45.6094 10.7422 44.8073 11.0651 44.2344 11.7109C43.6719 12.3568 43.3177 13.2318 43.1719 14.3359H50.0938Z" fill="#FF2626"/>
<path d="M64.4531 21.2266C65.5885 21.2266 66.5104 21.1016 67.2188 20.8516C68.5625 20.3724 69.2344 19.4818 69.2344 18.1797C69.2344 17.4193 68.901 16.8307 68.2344 16.4141C67.5677 16.0078 66.5208 15.6484 65.0938 15.3359L62.6562 14.7891C60.2604 14.2474 58.6042 13.6589 57.6875 13.0234C56.1354 11.9609 55.3594 10.2995 55.3594 8.03906C55.3594 5.97656 56.1094 4.26302 57.6094 2.89844C59.1094 1.53385 61.3125 0.851562 64.2188 0.851562C66.6458 0.851562 68.7135 1.4974 70.4219 2.78906C72.1406 4.07031 73.0417 5.9349 73.125 8.38281H68.5C68.4167 6.9974 67.8125 6.01302 66.6875 5.42969C65.9375 5.04427 65.0052 4.85156 63.8906 4.85156C62.651 4.85156 61.6615 5.10156 60.9219 5.60156C60.1823 6.10156 59.8125 6.79948 59.8125 7.69531C59.8125 8.51823 60.1771 9.13281 60.9062 9.53906C61.375 9.8099 62.375 10.1276 63.9062 10.4922L67.875 11.4453C69.6146 11.862 70.9271 12.4193 71.8125 13.1172C73.1875 14.2005 73.875 15.7682 73.875 17.8203C73.875 19.9245 73.0677 21.6745 71.4531 23.0703C69.849 24.4557 67.5781 25.1484 64.6406 25.1484C61.6406 25.1484 59.2812 24.4661 57.5625 23.1016C55.8438 21.7266 54.9844 19.8411 54.9844 17.4453H59.5781C59.724 18.4974 60.0104 19.2839 60.4375 19.8047C61.2188 20.7526 62.5573 21.2266 64.4531 21.2266Z" fill="#222222"/>
<path d="M89.8125 13.6328H85.25C85.1667 12.9974 84.9531 12.4245 84.6094 11.9141C84.1094 11.2266 83.3333 10.8828 82.2812 10.8828C80.7812 10.8828 79.7552 11.6276 79.2031 13.1172C78.9115 13.9089 78.7656 14.9609 78.7656 16.2734C78.7656 17.5234 78.9115 18.5286 79.2031 19.2891C79.7344 20.7057 80.7344 21.4141 82.2031 21.4141C83.2448 21.4141 83.9844 21.1328 84.4219 20.5703C84.8594 20.0078 85.125 19.2786 85.2188 18.3828H89.7656C89.6615 19.737 89.1719 21.0182 88.2969 22.2266C86.901 24.1745 84.8333 25.1484 82.0938 25.1484C79.3542 25.1484 77.3385 24.3359 76.0469 22.7109C74.7552 21.0859 74.1094 18.9766 74.1094 16.3828C74.1094 13.4557 74.8229 11.1797 76.25 9.55469C77.6771 7.92969 79.6458 7.11719 82.1562 7.11719C84.2917 7.11719 86.0365 7.59635 87.3906 8.55469C88.7552 9.51302 89.5625 11.2057 89.8125 13.6328Z" fill="#222222"/>
<path d="M105.094 9.67969C106.531 11.4818 107.25 13.612 107.25 16.0703C107.25 18.5703 106.531 20.7109 105.094 22.4922C103.656 24.263 101.474 25.1484 98.5469 25.1484C95.6198 25.1484 93.4375 24.263 92 22.4922C90.5625 20.7109 89.8438 18.5703 89.8438 16.0703C89.8438 13.612 90.5625 11.4818 92 9.67969C93.4375 7.8776 95.6198 6.97656 98.5469 6.97656C101.474 6.97656 103.656 7.8776 105.094 9.67969ZM98.5312 10.7422C97.2292 10.7422 96.224 11.2057 95.5156 12.1328C94.8177 13.0495 94.4688 14.362 94.4688 16.0703C94.4688 17.7786 94.8177 19.0964 95.5156 20.0234C96.224 20.9505 97.2292 21.4141 98.5312 21.4141C99.8333 21.4141 100.833 20.9505 101.531 20.0234C102.229 19.0964 102.578 17.7786 102.578 16.0703C102.578 14.362 102.229 13.0495 101.531 12.1328C100.833 11.2057 99.8333 10.7422 98.5312 10.7422Z" fill="#222222"/>
<path d="M119.375 22.1484C119.333 22.2005 119.229 22.3568 119.062 22.6172C118.896 22.8776 118.698 23.1068 118.469 23.3047C117.771 23.9297 117.094 24.3568 116.438 24.5859C115.792 24.8151 115.031 24.9297 114.156 24.9297C111.635 24.9297 109.938 24.0234 109.062 22.2109C108.573 21.2109 108.328 19.737 108.328 17.7891V7.52344H112.891V17.7891C112.891 18.7578 113.005 19.487 113.234 19.9766C113.641 20.8411 114.438 21.2734 115.625 21.2734C117.146 21.2734 118.188 20.6589 118.75 19.4297C119.042 18.763 119.188 17.8828 119.188 16.7891V7.52344H123.703V24.5547H119.375V22.1484Z" fill="#222222"/>
<path d="M133.812 21.3828V24.7109L131.703 24.7891C129.599 24.862 128.161 24.4974 127.391 23.6953C126.891 23.1849 126.641 22.3984 126.641 21.3359V10.8516H124.266V7.67969H126.641V2.92969H131.047V7.67969H133.812V10.8516H131.047V19.8516C131.047 20.5495 131.135 20.987 131.312 21.1641C131.49 21.3307 132.031 21.4141 132.938 21.4141C133.073 21.4141 133.214 21.4141 133.359 21.4141C133.516 21.4036 133.667 21.3932 133.812 21.3828Z" fill="#222222"/>
</svg>
